# xmcd
#
# Track frame offsets: 
#        150
#        27010
#        50397
#        90472
#        115779
#        154639
#        174186
#        203401
#        225528
#        239645
#        257212
#        323552
#
# Disc length: 4640 seconds
#
# Revision: 0
# Processed by: cddbd v1.5.2PL0 Copyright (c) Steve Scherf et al.
# Submitted via: ExactAudioCopy v1.0b1
#
DISCID=87121e0c
DTITLE=Canned Heat - Under The Dutch Skies 1970-74 [disk 1]
DYEAR=2007
DGENRE=Blues Rock
TTITLE0=Killing Floor
TTITLE1=I Love My Baby
TTITLE2=All Night Long
TTITLE3=Future Blues
TTITLE4=Holland Boogie
TTITLE5=Let's Work Together
TTITLE6=Hill's Stomp
TTITLE7=That's All Right
TTITLE8=Going Up The Country
TTITLE9=Long Way From L. A.
TTITLE10=Pay My Rent Boogie
TTITLE11=Big City
EXTD=
EXTT0=
EXTT1=
EXTT2=
EXTT3=
EXTT4=
EXTT5=
EXTT6=
EXTT7=
EXTT8=
EXTT9=
EXTT10=
EXTT11=
PLAYORDER=
